<svg width="120" height="32" viewBox="0 0 120 32" fill="none" xmlns="http://www.w3.org/2000/svg">
<g clip-path="url(#clip0_34_98)">
<path d="M43.6907 10.9388C42.8766 10.9388 42.0625 10.8299 41.3569 10.5578C40.6514 10.3401 40.0544 9.95918 39.5659 9.52381C39.0774 9.03401 38.6975 8.4898 38.4261 7.83673C38.1548 7.18367 37.9919 6.36735 37.9919 5.4966C37.9919 4.68027 38.1548 3.91837 38.4261 3.26531C38.6975 2.61224 39.1317 2.01361 39.6202 1.52381C40.1086 1.03401 40.7599 0.653061 41.4655 0.380952C42.171 0.108844 42.9309 0 43.745 0C44.5591 0 45.3189 0.108844 46.0245 0.380952C46.7301 0.653061 47.3271 1.03401 47.8156 1.46939C48.304 1.95918 48.7382 2.5034 49.0096 3.15646C49.281 3.80952 49.4438 4.57143 49.4438 5.33333C49.4438 5.76871 49.3895 6.14966 49.3352 6.47619C49.2267 6.85714 49.1181 7.12925 48.9553 7.45578C48.7925 7.72789 48.6297 8 48.4668 8.21769C48.304 8.43537 48.0869 8.65306 47.9241 8.76191V8.81633L50.1493 8.76191V10.8299H43.6907V10.9388ZM46.7843 5.4966C46.7843 5.06122 46.7301 4.62585 46.5673 4.2449C46.4044 3.86395 46.2416 3.53742 45.9702 3.21088C45.6989 2.93878 45.3732 2.72109 44.9933 2.55782C44.6134 2.39456 44.2335 2.34014 43.7993 2.34014C43.3651 2.34014 42.9852 2.39456 42.6052 2.55782C42.2253 2.72109 41.8997 2.93878 41.6283 3.21088C41.3569 3.48299 41.1398 3.80952 40.977 4.2449C40.8142 4.62585 40.7599 5.06122 40.7599 5.4966C40.7599 5.98639 40.8142 6.42177 40.977 6.80272C41.1398 7.18367 41.3027 7.56463 41.574 7.83673C41.8454 8.10884 42.171 8.32653 42.4967 8.4898C42.8766 8.65306 43.2565 8.70748 43.6907 8.70748C44.1249 8.70748 44.5048 8.65306 44.8848 8.4898C45.2647 8.32653 45.5903 8.10884 45.8617 7.83673C46.1331 7.56463 46.3502 7.18367 46.513 6.80272C46.6758 6.42177 46.7843 5.98639 46.7843 5.4966Z" fill="#474B4F"/>
<path d="M60.5156 8.65341C60.2985 9.19763 59.9729 9.63301 59.593 10.014C59.213 10.3949 58.7246 10.667 58.1276 10.8847C57.5848 11.1024 56.9335 11.2112 56.228 11.2112C55.5224 11.2112 54.9254 11.1024 54.3284 10.8847C53.7856 10.667 53.2972 10.3949 52.9173 10.014C52.5373 9.63301 52.2117 9.19763 51.9946 8.65341C51.7775 8.1092 51.6689 7.56498 51.6689 6.91192V0.272461H54.2198V6.69423C54.2198 6.96634 54.2741 7.23845 54.3284 7.51056C54.3827 7.78267 54.4912 8.00035 54.654 8.21804C54.8168 8.43573 55.0339 8.59899 55.251 8.70784C55.5224 8.81668 55.7938 8.8711 56.1737 8.8711C56.5536 8.8711 56.825 8.81668 57.0964 8.70784C57.3677 8.59899 57.5848 8.43573 57.6934 8.21804C57.8562 8.00035 57.9647 7.78267 58.019 7.51056C58.0733 7.23845 58.1276 6.96634 58.1276 6.69423V0.272461H60.6784V6.91192C60.8413 7.56498 60.7327 8.16362 60.5156 8.65341Z" fill="#474B4F"/>
<path d="M70.2307 10.9391L69.4166 8.8711H65.2917L64.5319 10.9391H61.7639L66.2144 0.272461H68.711L73.1072 10.9391H70.2307ZM67.4084 3.10239L66.0516 6.74865H68.711L67.4084 3.10239Z" fill="#474B4F"/>
<path d="M81.1397 10.9391L76.8521 3.97314H76.7978L76.8521 10.9391H74.3555V0.272461H77.2863L81.5196 7.23845H81.5739L81.5196 0.272461H84.0163V10.9391H81.1397Z" fill="#474B4F"/>
<path d="M91.2349 2.50304V10.9384H88.684V2.50304H85.699V0.326172H94.2743V2.50304H91.2349Z" fill="#474B4F"/>
<path d="M104.478 8.65341C104.261 9.19763 103.935 9.63301 103.555 10.014C103.175 10.3949 102.687 10.667 102.09 10.8847C101.547 11.1024 100.896 11.2112 100.19 11.2112C99.4846 11.2112 98.8876 11.1024 98.2905 10.8847C97.7478 10.667 97.2593 10.3949 96.8794 10.014C96.4995 9.63301 96.1738 9.19763 95.9568 8.65341C95.7397 8.1092 95.6311 7.56498 95.6311 6.91192V0.272461H98.182V6.69423C98.182 6.96634 98.2363 7.23845 98.2905 7.51056C98.3448 7.78267 98.4534 8.00035 98.6162 8.21804C98.779 8.43573 98.9961 8.59899 99.2132 8.70784C99.4846 8.81668 99.7559 8.8711 100.136 8.8711C100.516 8.8711 100.787 8.81668 101.059 8.70784C101.33 8.59899 101.547 8.43573 101.656 8.21804C101.818 8.00035 101.927 7.78267 101.981 7.51056C102.035 7.23845 102.09 6.96634 102.09 6.69423V0.272461H104.641V6.91192C104.803 7.56498 104.695 8.16362 104.478 8.65341Z" fill="#474B4F"/>
<path d="M116.907 10.9391L116.961 3.42892H116.907L114.139 10.9391H112.348L109.688 3.42892H109.634L109.688 10.9391H107.3V0.272461H110.936L113.379 7.07518H113.433L115.767 0.272461H119.457V10.9391H116.907Z" fill="#474B4F"/>
<path d="M45.0476 23.946L42.7681 19.7011H41.8997V23.946H39.4031V13.2793H43.4194C43.9078 13.2793 44.4506 13.3337 44.8848 13.4426C45.3732 13.5514 45.8074 13.7147 46.1873 13.9868C46.5673 14.2589 46.8929 14.5854 47.11 14.9664C47.3271 15.4017 47.4356 15.8915 47.4356 16.4902C47.4356 17.1977 47.2185 17.7963 46.8386 18.2861C46.4587 18.7759 45.916 19.1024 45.2104 19.3201L47.9784 23.8915H45.0476V23.946ZM44.939 16.5446C44.939 16.2725 44.8848 16.1092 44.7762 15.946C44.6677 15.7827 44.5591 15.6739 44.3963 15.565C44.2335 15.4562 44.0706 15.4017 43.8536 15.4017C43.6365 15.3473 43.4736 15.3473 43.2565 15.3473H41.8997V17.8507H43.0937C43.3108 17.8507 43.5279 17.8507 43.745 17.7963C43.9621 17.7419 44.1792 17.6875 44.342 17.633C44.5048 17.5786 44.6677 17.4154 44.7762 17.2521C44.8848 17.0344 44.939 16.8167 44.939 16.5446Z" fill="#474B4F"/>
<path d="M49.4438 23.946V13.2793H56.608V15.4562H51.9405V17.4698H56.3367V19.5378H51.9405V21.7691H56.8794V23.946H49.4438Z" fill="#474B4F"/>
<path d="M64.3149 16.0542C64.0978 15.7821 63.8264 15.5644 63.4465 15.4011C63.0666 15.2379 62.7409 15.129 62.4153 15.129C62.2525 15.129 62.0897 15.129 61.8726 15.1834C61.7097 15.2379 61.5469 15.2923 61.3841 15.3467C61.2213 15.4556 61.1127 15.5644 61.0584 15.6732C60.9499 15.7821 60.8956 15.9998 60.8956 16.2175C60.8956 16.3807 60.9499 16.544 61.0042 16.6528C61.0584 16.7617 61.167 16.8705 61.3298 16.9794C61.4926 17.0882 61.6555 17.1426 61.8726 17.2515C62.0897 17.3059 62.3067 17.4147 62.5238 17.4692C62.9038 17.578 63.2837 17.7413 63.6636 17.8501C64.0435 18.0134 64.4234 18.1766 64.7491 18.4487C65.0747 18.6664 65.3461 18.993 65.5632 19.3195C65.7803 19.646 65.8888 20.1358 65.8888 20.6256C65.8888 21.2243 65.7803 21.7685 65.5632 22.2038C65.3461 22.6392 65.0205 23.0202 64.6405 23.2923C64.2606 23.5644 63.8264 23.7821 63.338 23.9453C62.8495 24.1086 62.361 24.163 61.8183 24.163C61.0584 24.163 60.2986 24.0542 59.593 23.7821C58.8875 23.51 58.2905 23.129 57.802 22.6392L59.4845 20.9521C59.7559 21.2787 60.0815 21.5508 60.5157 21.7685C60.9499 21.9862 61.3841 22.095 61.764 22.095C61.9268 22.095 62.1439 22.095 62.3068 22.0406C62.4696 21.9862 62.6324 21.9317 62.7952 21.8229C62.9038 21.7141 63.0123 21.6052 63.1209 21.4419C63.1751 21.2787 63.2294 21.1154 63.2294 20.8977C63.2294 20.68 63.1751 20.5168 63.0666 20.4079C62.958 20.2447 62.8495 20.1358 62.6324 20.027C62.4696 19.9181 62.1982 19.8093 61.9268 19.7004C61.6555 19.5916 61.3298 19.4828 61.0042 19.3739C60.6785 19.2651 60.3529 19.1562 60.0272 18.993C59.7016 18.8297 59.4302 18.6664 59.1589 18.3943C58.8875 18.1222 58.7247 17.8501 58.5618 17.5236C58.399 17.197 58.3447 16.7617 58.3447 16.2719C58.3447 15.6732 58.4533 15.1834 58.7247 14.7481C58.9418 14.3127 59.2674 13.9862 59.6473 13.7141C60.0272 13.4419 60.4614 13.2243 60.9499 13.1154C61.4384 13.0066 61.9268 12.9521 62.4153 12.9521C63.0123 12.9521 63.6093 13.061 64.2606 13.2787C64.9119 13.4964 65.4546 13.8229 65.8888 14.2583L64.3149 16.0542Z" fill="#474B4F"/>
<path d="M67.6799 23.946V13.2793H70.2851V23.946H67.6799Z" fill="#474B4F"/>
<path d="M78.2089 16.0542C77.9918 15.7821 77.7205 15.5644 77.3405 15.4011C76.9606 15.2379 76.635 15.129 76.3093 15.129C76.1465 15.129 75.9837 15.129 75.7666 15.1834C75.6038 15.2379 75.441 15.2923 75.2781 15.3467C75.1153 15.4556 75.0068 15.5644 74.9525 15.6732C74.8439 15.7821 74.7897 15.9998 74.7897 16.2175C74.7897 16.3807 74.8439 16.544 74.8982 16.6528C74.9525 16.7617 75.061 16.8705 75.2239 16.9794C75.3867 17.0882 75.5495 17.1426 75.7666 17.2515C75.9837 17.3059 76.2008 17.4147 76.4179 17.4692C76.7978 17.578 77.1777 17.7413 77.5576 17.8501C77.9376 18.0134 78.3175 18.1766 78.6431 18.4487C78.9688 18.6664 79.2401 18.993 79.4572 19.3195C79.6743 19.646 79.7829 20.1358 79.7829 20.6256C79.7829 21.2243 79.6743 21.7685 79.4572 22.2038C79.2401 22.6392 78.9145 23.0202 78.5346 23.2923C78.1547 23.5644 77.7205 23.7821 77.232 23.9453C76.7435 24.1086 76.2551 24.163 75.7123 24.163C74.9525 24.163 74.1926 24.0542 73.4871 23.7821C72.7815 23.51 72.1845 23.129 71.696 22.6392L73.3785 20.9521C73.6499 21.2787 73.9756 21.5508 74.4097 21.7685C74.8439 21.9862 75.2781 22.095 75.658 22.095C75.8209 22.095 76.038 22.095 76.2008 22.0406C76.3636 21.9862 76.5264 21.9317 76.6893 21.8229C76.7978 21.7141 76.9064 21.6052 77.0149 21.4419C77.0692 21.2787 77.1235 21.1154 77.1235 20.8977C77.1235 20.68 77.0692 20.5168 76.9606 20.4079C76.8521 20.2447 76.7435 20.1358 76.5264 20.027C76.3636 19.9181 76.0922 19.8093 75.8209 19.7004C75.5495 19.5916 75.2239 19.4828 74.8982 19.3739C74.5726 19.2651 74.2469 19.1562 73.9213 18.993C73.5956 18.8297 73.3243 18.6664 73.0529 18.3943C72.7815 18.1222 72.6187 17.8501 72.4559 17.5236C72.2931 17.197 72.2388 16.7617 72.2388 16.2719C72.2388 15.6732 72.3473 15.1834 72.6187 14.7481C72.8358 14.3127 73.1614 13.9862 73.5414 13.7141C73.9213 13.4419 74.3555 13.2243 74.8439 13.1154C75.3324 13.0066 75.8209 12.9521 76.3093 12.9521C76.9064 12.9521 77.5034 13.061 78.1547 13.2787C78.8059 13.4964 79.3487 13.8229 79.7829 14.2583L78.2089 16.0542Z" fill="#474B4F"/>
<path d="M85.9703 15.4562V23.946H83.4194V15.4562H80.4343V13.2793H89.0096V15.4562H85.9703Z" fill="#474B4F"/>
<path d="M96.6079 23.946L95.7938 21.8779H91.6689L90.9091 23.946H88.1411L92.5916 13.2793H95.0882L99.4844 23.946H96.6079ZM93.7313 16.1092L92.3745 19.7555H95.0339L93.7313 16.1092Z" fill="#474B4F"/>
<path d="M107.246 23.946L102.958 16.98H102.904L102.958 23.946H100.461V13.2793H103.392L107.626 20.2453H107.68L107.626 13.2793H110.122V23.946H107.246Z" fill="#474B4F"/>
<path d="M117.015 15.4562V23.946H114.464V15.4562H111.479V13.2793H120.054V15.4562H117.015Z" fill="#474B4F"/>
<path d="M52.1032 30.9119C51.9946 31.0752 51.8861 31.184 51.7775 31.2928C51.669 31.4017 51.5061 31.5105 51.289 31.6194C51.1262 31.7282 50.9091 31.7826 50.692 31.8371C50.4749 31.8915 50.2578 31.9459 49.9865 31.9459C49.5523 31.9459 49.1724 31.8915 48.7924 31.7282C48.4125 31.565 48.1411 31.4017 47.8698 31.1296C47.5984 30.8575 47.4356 30.5854 47.2728 30.2044C47.1099 29.8235 47.0557 29.4425 47.0557 29.0071C47.0557 28.5718 47.1099 28.1908 47.2728 27.8099C47.4356 27.4289 47.5984 27.1568 47.8698 26.8847C48.1411 26.6126 48.4125 26.3949 48.7924 26.286C49.1724 26.1228 49.5523 26.0684 49.9322 26.0684C50.1493 26.0684 50.3121 26.0684 50.5292 26.1228C50.7463 26.1772 50.9091 26.2316 51.0719 26.286C51.2348 26.3405 51.3976 26.4493 51.5604 26.5582C51.7232 26.667 51.8318 26.7758 51.9403 26.9391L51.5604 27.3201C51.5061 27.2112 51.4519 27.1568 51.3433 27.048C51.2348 26.9391 51.1262 26.8847 51.0177 26.8303C50.9091 26.7758 50.7463 26.7214 50.5835 26.667C50.4207 26.6126 50.2578 26.6126 50.095 26.6126C49.7151 26.6126 49.3895 26.667 49.1181 26.8303C48.8467 26.9391 48.5753 27.1568 48.4125 27.3745C48.1954 27.5922 48.0869 27.8643 47.9783 28.1364C47.8698 28.4085 47.8155 28.735 47.8155 29.0616C47.8155 29.3881 47.8698 29.7146 47.9783 29.9867C48.0869 30.2588 48.2497 30.5309 48.4668 30.7486C48.6839 30.9663 48.901 31.1296 49.1724 31.2928C49.4437 31.4017 49.7694 31.5105 50.1493 31.5105C50.4749 31.5105 50.8006 31.4561 51.0719 31.2928C51.3433 31.184 51.6147 30.9663 51.7775 30.6398L52.1032 30.9119Z" fill="#474B4F"/>
<path d="M53.8943 31.8369H53.3516V26.2314H54.9798C55.2512 26.2314 55.5225 26.2314 55.7396 26.2859C55.9567 26.3403 56.1738 26.4491 56.3366 26.558C56.4995 26.6668 56.6623 26.8301 56.7166 27.0478C56.8251 27.211 56.8794 27.4831 56.8794 27.7553C56.8794 27.9729 56.8251 28.1362 56.7708 28.2995C56.7166 28.4627 56.608 28.626 56.4452 28.7348C56.3366 28.8437 56.1738 28.9525 56.011 29.007C55.8482 29.0614 55.6311 29.1158 55.4682 29.1702L57.0965 31.8369H56.3909L54.8712 29.2246H53.9486V31.8369H53.8943ZM53.8943 28.7348H54.8712C55.3054 28.7348 55.6853 28.626 55.9024 28.4627C56.1195 28.2995 56.2824 28.0274 56.2824 27.7008C56.2824 27.5376 56.2281 27.3743 56.1738 27.211C56.1195 27.1022 56.011 26.9934 55.9024 26.8845C55.7939 26.8301 55.6311 26.7212 55.4682 26.7212C55.3054 26.6668 55.0883 26.6668 54.8712 26.6668H53.84V28.7348H53.8943Z" fill="#474B4F"/>
<path d="M60.1899 31.8369H59.6472V29.4423L57.5305 26.2314H58.2361L59.9186 28.9525L61.6011 26.2314H62.2524L60.1357 29.4423V31.8369H60.1899Z" fill="#474B4F"/>
<path d="M63.2837 26.2314H64.8576C65.129 26.2314 65.4004 26.2859 65.6175 26.3403C65.8346 26.3947 66.0517 26.5036 66.2145 26.6124C66.3773 26.7212 66.4859 26.8845 66.5944 27.1022C66.703 27.2655 66.703 27.4831 66.703 27.7553C66.703 28.0274 66.6487 28.2451 66.5401 28.4083C66.4316 28.5716 66.323 28.7348 66.1602 28.8981C65.9974 29.0614 65.7803 29.1158 65.5632 29.1702C65.3461 29.2246 65.0747 29.2791 64.8034 29.2791H63.8264V31.8913H63.2837V26.2314ZM63.8807 28.7348H64.8576C65.2918 28.7348 65.6175 28.626 65.8888 28.4627C66.1602 28.2995 66.2145 28.0274 66.2145 27.7008C66.2145 27.3743 66.1059 27.1022 65.8346 26.9389C65.6175 26.7757 65.2376 26.7212 64.8034 26.7212H63.8264V28.7348H63.8807Z" fill="#474B4F"/>
<path d="M69.8509 31.8369H69.3082V26.7212H67.4629V26.2314H71.7505V26.7212H69.9052V31.8369H69.8509Z" fill="#474B4F"/>
<path d="M78.1005 29.0071C78.1005 29.4425 78.0462 29.8235 77.8834 30.2044C77.7205 30.5854 77.5577 30.8575 77.2863 31.1296C77.015 31.4017 76.7436 31.6194 76.3637 31.7282C75.9838 31.8915 75.6039 31.9459 75.2239 31.9459C74.7897 31.9459 74.4098 31.8915 74.0842 31.7282C73.7043 31.565 73.4329 31.4017 73.1615 31.1296C72.8902 30.8575 72.6731 30.5854 72.5645 30.2044C72.4017 29.8235 72.3474 29.4425 72.3474 29.0071C72.3474 28.5718 72.4017 28.1908 72.5645 27.8099C72.7273 27.4289 72.8902 27.1568 73.1615 26.8847C73.4329 26.6126 73.7043 26.3949 74.0842 26.286C74.4641 26.1228 74.844 26.0684 75.2239 26.0684C75.6581 26.0684 76.038 26.1228 76.3637 26.286C76.7436 26.4493 77.015 26.6126 77.2863 26.8847C77.5577 27.1568 77.7748 27.4289 77.8834 27.8099C78.0462 28.1908 78.1005 28.6262 78.1005 29.0071ZM77.5034 29.0616C77.5034 28.735 77.4492 28.4085 77.3406 28.1364C77.2321 27.8643 77.0693 27.5922 76.9064 27.3745C76.6893 27.1568 76.4722 26.9935 76.2009 26.8303C75.9295 26.7214 75.6039 26.6126 75.2239 26.6126C74.844 26.6126 74.5184 26.667 74.247 26.8303C73.9756 26.9391 73.7043 27.1568 73.5414 27.3745C73.3243 27.5922 73.2158 27.8643 73.1072 28.1364C72.9987 28.4085 72.9444 28.735 72.9444 29.0616C72.9444 29.3881 72.9987 29.7146 73.1072 29.9867C73.2158 30.2588 73.3786 30.5309 73.5414 30.7486C73.7585 30.9663 73.9756 31.1296 74.247 31.2928C74.5184 31.4017 74.844 31.5105 75.2239 31.5105C75.6039 31.5105 75.9295 31.4561 76.2009 31.2928C76.4722 31.184 76.7436 30.9663 76.9064 30.7486C77.1235 30.5309 77.2321 30.2588 77.3406 29.9867C77.4492 29.6602 77.5034 29.3881 77.5034 29.0616Z" fill="#474B4F"/>
<path d="M83.7993 27.2656C83.5822 27.0479 83.3651 26.8847 83.0937 26.7758C82.8223 26.667 82.4967 26.6126 82.171 26.6126C81.7911 26.6126 81.4655 26.667 81.1941 26.8303C80.9227 26.9391 80.6514 27.1568 80.4885 27.3745C80.2714 27.5922 80.1086 27.8643 80.0001 28.1364C79.8915 28.4085 79.8373 28.735 79.8373 29.0616C79.8373 29.3881 79.8915 29.7146 80.0001 29.9867C80.1086 30.2588 80.2714 30.5309 80.4885 30.7486C80.7056 30.9663 80.9227 31.1296 81.1941 31.2928C81.4655 31.4017 81.7911 31.5105 82.171 31.5105C82.4967 31.5105 82.768 31.4561 83.0394 31.4017C83.3108 31.3473 83.5279 31.2384 83.6907 31.1296V29.3881H82.3881V28.8983H84.2334V31.4017C83.9078 31.565 83.5822 31.7282 83.2565 31.8371C82.9309 31.9459 82.551 31.9459 82.171 31.9459C81.7368 31.9459 81.3569 31.8915 80.977 31.7282C80.5971 31.565 80.3257 31.4017 80.0543 31.1296C79.783 30.8575 79.6201 30.5854 79.4573 30.2044C79.2945 29.8235 79.2402 29.4425 79.2402 29.0071C79.2402 28.5718 79.2945 28.1908 79.4573 27.8099C79.6201 27.4289 79.783 27.1568 80.0543 26.8847C80.3257 26.6126 80.5971 26.3949 80.977 26.286C81.3569 26.1228 81.7368 26.0684 82.1168 26.0684C82.551 26.0684 82.9309 26.1228 83.3108 26.286C83.6364 26.3949 83.9078 26.6126 84.1792 26.8303L83.7993 27.2656Z" fill="#474B4F"/>
<path d="M86.513 31.8369H85.9702V26.2314H87.5984C87.8698 26.2314 88.1412 26.2314 88.3583 26.2859C88.5754 26.3403 88.7925 26.4491 88.9553 26.558C89.1181 26.6668 89.2809 26.8301 89.3352 27.0478C89.3895 27.2655 89.498 27.4831 89.498 27.7553C89.498 27.9729 89.4438 28.1362 89.3895 28.2995C89.3352 28.4627 89.2267 28.626 89.0638 28.7348C88.9553 28.8437 88.7925 28.9525 88.6296 29.007C88.4668 29.0614 88.2497 29.1158 88.0869 29.1702L89.7151 31.8369H89.0096L87.4899 29.2246H86.5672V31.8369H86.513ZM86.513 28.7348H87.4899C87.9241 28.7348 88.304 28.626 88.5211 28.4627C88.7382 28.2995 88.901 28.0274 88.901 27.7008C88.901 27.5376 88.8467 27.3743 88.7925 27.211C88.7382 27.1022 88.6297 26.9934 88.5211 26.8845C88.4126 26.8301 88.2497 26.7212 88.0869 26.7212C87.9241 26.6668 87.707 26.6668 87.4899 26.6668H86.4587V28.7348H86.513Z" fill="#474B4F"/>
<path d="M90.9093 31.8369H90.3123L92.7003 26.2314H93.2431L95.6311 31.8369H94.9798L94.3828 30.3675H91.5063L90.9093 31.8369ZM91.7234 29.8233H94.1657L92.9174 26.8301L91.7234 29.8233Z" fill="#474B4F"/>
<path d="M96.7166 26.2314H98.2905C98.5619 26.2314 98.8332 26.2859 99.0503 26.3403C99.2674 26.3947 99.4845 26.5036 99.6474 26.6124C99.8102 26.7212 99.9187 26.8845 100.027 27.1022C100.136 27.2655 100.136 27.4831 100.136 27.7553C100.136 28.0274 100.082 28.2451 99.973 28.4083C99.8644 28.5716 99.7559 28.7348 99.5931 28.8981C99.4303 29.0614 99.2132 29.1158 98.9961 29.1702C98.779 29.2246 98.5076 29.2791 98.2362 29.2791H97.2593V31.8913H96.7166V26.2314ZM97.3136 28.7348H98.2905C98.7247 28.7348 99.0503 28.626 99.3217 28.4627C99.5931 28.2995 99.6474 28.0274 99.6474 27.7008C99.6474 27.3743 99.5388 27.1022 99.2674 26.9389C99.0503 26.7757 98.6704 26.7212 98.2362 26.7212H97.2593V28.7348H97.3136Z" fill="#474B4F"/>
<path d="M101.547 26.2314H102.09V28.6804H105.129V26.2314H105.672V31.8369H105.129V29.1702H102.09V31.8369H101.547V26.2314Z" fill="#474B4F"/>
<path d="M109.417 31.8369H108.874V29.4423L106.757 26.2314H107.463L109.145 28.9525L110.828 26.2314H111.479L109.362 29.4423V31.8369H109.417Z" fill="#474B4F"/>
<path d="M24.2606 9.6875H22.4153C22.4153 16.4358 15.9567 22.0412 9.49805 22.0412V31.5106H22.361V24.4358V22.0412H31.859V9.6875H24.2606Z" fill="#BE1F24"/>
<path d="M22.4152 9.68716V7.2926V0.217773H9.49796V9.68716H0V22.0409H7.59837H9.49796C9.49796 15.8368 15.0339 9.68716 22.4152 9.68716Z" fill="#ED1C24"/>
<path d="M22.4153 9.6875C15.034 9.6875 9.49805 15.8916 9.49805 22.0412C15.9567 22.0412 22.4153 16.4358 22.4153 9.6875Z" fill="#891A1C"/>
</g>
<defs>
<clipPath id="clip0_34_98">
<rect width="120" height="32" fill="white"/>
</clipPath>
</defs>
</svg>
